<?xml version="1.0" encoding="UTF-8" standalone="no"?>
<!DOCTYPE svg PUBLIC "-//W3C//DTD SVG 1.1//EN" "http://www.w3.org/Graphics/SVG/1.1/DTD/svg11.dtd">
<svg xmlns="http://www.w3.org/2000/svg" xmlns:xlink="http://www.w3.org/1999/xlink" version="1.1" width="1653.5556pt" height="2338.5833pt" viewBox="0 0 1653.5556 2338.5833">
<g enable-background="new">
<symbol id="font_0_2e">
<path d="M .393 0 L .59800007 .611 L .59800007 0 L .68600007 0 L .68600007 .72900006 L .55700007 .72900006 L .34500004 .094000007 L .12900001 .72900006 L 0 .72900006 L 0 0 L .088 0 L .088 .611 L .29500003 0 L .393 0 Z "/>
</symbol>
<symbol id="font_0_f">
<path d="M .10400001 .104 L 0 .104 L 0 0 L .10400001 0 L .10400001 .104 Z "/>
</symbol>
<symbol id="font_0_1">
<path d="M 0 0 Z "/>
</symbol>
<symbol id="font_0_2a">
<path d="M .094000007 .72900006 L 0 .72900006 L 0 0 L .094000007 0 L .094000007 .72900006 Z "/>
</symbol>
<symbol id="font_0_4f">
<path d="M 0 .52400007 L 0 0 L .084000017 0 L .084000017 .289 C .084000017 .39600004 .14000002 .46600003 .22600001 .46600003 C .29200004 .46600003 .33400003 .42600004 .33400003 .363 L .33400003 0 L .41700004 0 L .41700004 .39600004 C .41700004 .483 .35200004 .53900006 .25100003 .53900006 C .17300001 .53900006 .123 .509 .077 .43600003 L .077 .52400007 L 0 .52400007 Z "/>
</symbol>
<symbol id="font_0_48">
<path d="M .36900003 .74200007 L .36900003 .666 C .32700003 .72900006 .28100003 .757 .215 .757 C .088 .757 0 .63900008 0 .47100003 C 0 .38300003 .021000002 .319 .066 .266 C .105000007 .22000002 .15500002 .19500001 .20900002 .19500001 C .272 .19500001 .31700004 .223 .36100004 .289 L .36100004 .26200003 C .36100004 .12200001 .32200004 .07000001 .21800003 .07000001 C .14700002 .07000001 .110000018 .098000008 .10200001 .158 L .017 .158 C .025000003 .061000006 .10200001 0 .21600002 0 C .293 0 .35700003 .025000006 .39100004 .067 C .43100003 .116000007 .44600005 .18100001 .44600005 .30400003 L .44600005 .74200007 L .36900003 .74200007 M .22300002 .68 C .31100003 .68 .36100004 .606 .36100004 .47300006 C .36100004 .34600003 .31000004 .272 .22300002 .272 C .13700001 .272 .08700001 .347 .08700001 .476 C .08700001 .60400006 .13700001 .68 .22300002 .68 Z "/>
</symbol>
<symbol id="font_0_23">
<path d="M 0 0 L .32900004 0 C .39800004 0 .449 .019000002 .48800005 .061000006 C .52400007 .09900001 .544 .15100001 .544 .208 C .544 .296 .504 .349 .411 .38500003 C .47800005 .416 .512 .469 .512 .544 C .512 .59800007 .49200005 .64400008 .45400007 .67800006 C .41500003 .71300008 .36600004 .72900006 .29600004 .72900006 L 0 .72900006 L 0 0 M .093 .41500003 L .093 .647 L .27300004 .647 C .32500003 .647 .35400004 .64000007 .37900005 .62100008 C .40500004 .601 .41900004 .57100006 .41900004 .531 C .41900004 .49100004 .40500004 .46100004 .37900005 .441 C .35400004 .42200003 .32500003 .41500003 .27300004 .41500003 L .093 .41500003 M .093 .082 L .093 .333 L .32000003 .333 C .40200005 .333 .45100004 .286 .45100004 .20700002 C .45100004 .12900001 .40200005 .082 .32000003 .082 L .093 .082 Z "/>
</symbol>
<symbol id="font_0_4a">
<path d="M .08400001 .52400007 L .001000002 .52400007 L .001000002 0 L .08400001 0 L .08400001 .52400007 M .08400001 .72900006 L 0 .72900006 L 0 .624 L .08400001 .624 L .08400001 .72900006 Z "/>
</symbol>
<symbol id="font_0_50">
<path d="M .23600002 .56200006 C .088 .56200006 0 .45700003 0 .28100003 C 0 .104 .088 0 .237 0 C .38500003 0 .47400005 .105000007 .47400005 .277 C .47400005 .45900003 .388 .56200006 .23600002 .56200006 M .237 .485 C .331 .485 .387 .40800003 .387 .27800004 C .387 .15400002 .329 .07700001 .237 .07700001 C .14400001 .07700001 .087 .15400002 .087 .28100003 C .087 .40800003 .14400001 .485 .237 .485 Z "/>
</symbol>
<symbol id="font_0_4e">
<path d="M 0 .52400007 L 0 0 L .084000017 0 L .084000017 .32900004 C .084000017 .40500004 .139 .46600003 .20700002 .46600003 C .26900003 .46600003 .30400003 .42800004 .30400003 .36100004 L .30400003 0 L .38800005 0 L .38800005 .32900004 C .38800005 .40500004 .44300003 .46600003 .51100006 .46600003 C .572 .46600003 .60800006 .42700003 .60800006 .36100004 L .60800006 0 L .69200006 0 L .69200006 .393 C .69200006 .48700003 .638 .53900006 .54 .53900006 C .47000004 .53900006 .42800004 .518 .37900005 .45900003 C .34800003 .51500007 .30600003 .53900006 .23800004 .53900006 C .16800002 .53900006 .121000017 .513 .077 .45000003 L .077 .52400007 L 0 .52400007 Z "/>
</symbol>
<symbol id="font_0_46">
<path d="M .47300003 .25700004 C .47300003 .337 .46700005 .38500003 .45200003 .42400003 C .41800005 .51 .33800004 .56200006 .24 .56200006 C .094 .56200006 0 .45100004 0 .27800004 C 0 .105000007 .09 0 .23800002 0 C .35800005 0 .44100005 .068 .46200005 .18200001 L .37800003 .18200001 C .35500003 .113000009 .30800004 .07700001 .24100001 .07700001 C .18800001 .07700001 .143 .101 .114999998 .14500001 C .095 .17500001 .088 .20500002 .087 .25700004 L .47300003 .25700004 M .089 .32500003 C .096 .42200003 .155 .485 .23900001 .485 C .32400004 .485 .38300003 .41900004 .38300003 .32500003 L .089 .32500003 Z "/>
</symbol>
<symbol id="font_0_45">
<path d="M .46900005 .75200006 L .38600005 .75200006 L .38600005 .48100005 C .351 .53400006 .29500003 .56200006 .22500003 .56200006 C .089 .56200006 0 .453 0 .286 C 0 .109000008 .086 0 .22800002 0 C .3 0 .35000003 .027000003 .39500005 .09200001 L .39500005 .023000002 L .46900005 .023000002 L .46900005 .75200006 M .23900002 .48400004 C .32900004 .48400004 .38600005 .40500004 .38600005 .279 C .38600005 .158 .328 .07800001 .24000001 .07800001 C .148 .07800001 .087000008 .15900001 .087000008 .28100003 C .087000008 .40300004 .148 .48400004 .23900002 .48400004 Z "/>
</symbol>
<symbol id="font_0_44">
<path d="M .44000004 .37100003 C .43600003 .42200003 .42500005 .455 .40500004 .48400004 C .36900003 .53300008 .30600003 .56200006 .233 .56200006 C .091000009 .56200006 0 .45000003 0 .27600003 C 0 .10700001 .09 0 .23200001 0 C .35700003 0 .43600003 .075 .44600005 .20300001 L .36200003 .20300001 C .34800003 .119 .30500005 .07700001 .23400001 .07700001 C .142 .07700001 .087000008 .15200001 .087000008 .27600003 C .087000008 .407 .141 .485 .23200001 .485 C .30200003 .485 .34600003 .44400005 .35600005 .37100003 L .44000004 .37100003 Z "/>
</symbol>
<symbol id="font_0_42">
<path d="M .49300004 .072000008 C .48400004 .07000001 .48000003 .07000001 .47500003 .07000001 C .44600005 .07000001 .43000005 .08500001 .43000005 .11100001 L .43000005 .41900004 C .43000005 .512 .36200003 .56200006 .23300001 .56200006 C .15600002 .56200006 .095000009 .54 .059 .50100007 C .035000005 .47400005 .024999999 .44400005 .023000002 .39200003 L .107 .39200003 C .114 .45600004 .15200001 .485 .23000002 .485 C .30600003 .485 .34700004 .45700003 .34700004 .407 L .34700004 .38500003 C .34600003 .349 .328 .33600004 .26000003 .32700003 C .14200002 .312 .124000009 .30800004 .092 .29500003 C .031000004 .269 0 .223 0 .155 C 0 .060000004 .066 0 .17200002 0 C .238 0 .291 .023000002 .35000003 .07700001 C .35600005 .023000002 .38200004 0 .43600003 0 C .45400004 0 .46500004 .0020000004 .49300004 .0090000019 L .49300004 .072000008 M .34700004 .18800001 C .34700004 .16000001 .33900003 .143 .314 .120000008 C .28000004 .089 .23900002 .073 .19 .073 C .125 .073 .087000008 .104 .087000008 .157 C .087000008 .21200001 .123 .24000001 .21300003 .25300003 C .30200003 .26500003 .31900005 .269 .34700004 .282 L .34700004 .18800001 Z "/>
</symbol>
<symbol id="font_0_d">
<path d="M 0 .25300003 L 0 .149 L .059999996 .149 L .059999996 .131 C .059999996 .062 .047 .041999997 0 .04 L 0 .002000004 C .06600001 0 .105 .048 .105 .133 L .105 .25300003 L 0 .25300003 Z "/>
</symbol>
<symbol id="font_0_54">
<path d="M .404 .40100003 C .403 .50400009 .335 .56200006 .21400002 .56200006 C .092 .56200006 .013 .499 .013 .402 C .013 .32000003 .055 .28100003 .17900002 .25100003 L .257 .23200001 C .315 .21800001 .338 .19700001 .338 .16000001 C .338 .11000001 .289 .07700001 .21599999 .07700001 C .171 .07700001 .13300002 .09 .11200001 .112 C .099 .127 .093 .142 .08800001 .179 L 0 .179 C .0040000008 .058000003 .072000008 0 .20900002 0 C .34100003 0 .425 .065000008 .425 .16600001 C .425 .24400002 .381 .287 .277 .312 L .197 .33100004 C .12900001 .347 .1 .36900003 .1 .40600003 C .1 .455 .143 .485 .211 .485 C .278 .485 .314 .45600004 .316 .40100003 L .404 .40100003 Z "/>
</symbol>
<symbol id="font_0_26">
<path d="M .09300001 .33200003 L .49000005 .33200003 L .49000005 .41400004 L .09300001 .41400004 L .09300001 .647 L .505 .647 L .505 .72900006 L 0 .72900006 L 0 0 L .523 0 L .523 .082 L .09300001 .082 L .09300001 .33200003 Z "/>
</symbol>
<symbol id="font_0_53">
<path d="M 0 .52400007 L 0 0 L .08400001 0 L .08400001 .272 C .08500001 .39800004 .13700001 .45400004 .252 .45100004 L .252 .536 C .238 .53800007 .23000002 .53900006 .22 .53900006 C .16600001 .53900006 .125 .507 .07700001 .42900003 L .07700001 .52400007 L 0 .52400007 Z "/>
</symbol>
<symbol id="font_0_2d">
<path d="M .093 .72900006 L 0 .72900006 L 0 0 L .45300005 0 L .45300005 .082 L .093 .082 L .093 .72900006 Z "/>
</symbol>
<symbol id="font_0_22">
<path d="M .45700006 .21900001 L .532 0 L .63600006 0 L .38000003 .72900006 L .26000003 .72900006 L 0 0 L .09900001 0 L .176 .21900001 L .45700006 .21900001 M .43100003 .29700003 L .199 .29700003 L .31900005 .629 L .43100003 .29700003 Z "/>
</symbol>
<symbol id="font_0_36">
<path d="M .46700005 .75200006 L .46700005 .24000001 C .46700005 .142 .39600004 .082 .279 .082 C .225 .082 .181 .095000009 .146 .120000008 C .11000001 .148 .093 .185 .093 .24000001 L .093 .75200006 L 0 .75200006 L 0 .24000001 C 0 .09200001 .10600001 0 .279 0 C .45000003 0 .56000009 .094000007 .56000009 .24000001 L .56000009 .75200006 L .46700005 .75200006 Z "/>
</symbol>
<symbol id="font_0_33">
<path d="M .093 .314 L .33300004 .314 C .416 .314 .453 .27400003 .453 .18400002 L .45200003 .119 C .45200003 .074 .46000005 .030000002 .47300006 0 L .586 0 L .586 .023000002 C .55100008 .047000003 .544 .07300001 .54200008 .17 C .541 .29000003 .522 .326 .44300003 .36 C .52500006 .40100003 .558 .45000003 .558 .53400006 C .558 .66 .48000003 .72900006 .33600004 .72900006 L 0 .72900006 L 0 0 L .093 0 L .093 .314 M .093 .39600004 L .093 .647 L .31800003 .647 C .37000004 .647 .40000005 .63900008 .42300005 .619 C .448 .59800007 .46100004 .565 .46100004 .522 C .46100004 .43500004 .41700007 .39600004 .31800003 .39600004 L .093 .39600004 Z "/>
</symbol>
<symbol id="font_0_2f">
<path d="M .57000008 .72900006 L .48200003 .72900006 L .48200003 .133 L .100999999 .72900006 L 0 .72900006 L 0 0 L .088 0 L .088 .591 L .465 0 L .57000008 0 L .57000008 .72900006 Z "/>
</symbol>
<symbol id="font_0_25">
<path d="M 0 0 L .28100003 0 C .46500004 0 .57800009 .13800001 .57800009 .365 C .57800009 .591 .46600003 .72900006 .28100003 .72900006 L 0 .72900006 L 0 0 M .09300001 .082 L .09300001 .647 L .265 .647 C .40900005 .647 .485 .55 .485 .36400003 C .485 .179 .40900005 .082 .265 .082 L .09300001 .082 Z "/>
</symbol>
<symbol id="font_0_30">
<path d="M .351 .76400008 C .142 .76400008 0 .61 0 .38200004 C 0 .15300001 .141 0 .352 0 C .44100005 0 .51900008 .027000003 .57800009 .07700001 C .65700009 .14400001 .70400008 .25700004 .70400008 .37600003 C .70400008 .611 .56500008 .76400008 .351 .76400008 M .351 .68200007 C .50900009 .68200007 .61100009 .563 .61100009 .37800003 C .61100009 .202 .50600007 .082 .352 .082 C .19600001 .082 .09300001 .202 .09300001 .38200004 C .09300001 .56200006 .19600001 .68200007 .351 .68200007 Z "/>
</symbol>
<symbol id="font_0_34">
<path d="M .54800006 .53800007 C .54800006 .588 .5450001 .60200008 .52900007 .63600006 C .489 .72 .404 .76400008 .28100003 .76400008 C .121000017 .76400008 .022 .68200007 .022 .55 C .022 .46100004 .069000009 .40500004 .16500002 .38000003 L .34600003 .33200003 C .439 .30800004 .48 .27100004 .48 .21400002 C .48 .17500001 .45900003 .135 .428 .113000009 C .39900003 .09200001 .35300002 .082 .294 .082 C .21400002 .082 .16100002 .101 .12600002 .143 C .099 .17500001 .087000008 .21000001 .08800001 .255 L 0 .255 C .001000002 .18800001 .014000002 .14400001 .043000007 .104 C .093 .035000005 .17700002 0 .28800003 0 C .375 0 .446 .020000002 .493 .056 C .54200008 .095000009 .5730001 .16000001 .5730001 .223 C .5730001 .31300003 .517 .379 .418 .40600003 L .23500002 .455 C .14700002 .47900004 .115 .507 .115 .563 C .115 .637 .18 .68600007 .278 .68600007 C .39400003 .68600007 .45900003 .634 .46 .53800007 L .54800006 .53800007 Z "/>
</symbol>
<symbol id="font_0_13">
<path d="M .47200004 .086 L .099 .086 C .108 .146 .14000002 .184 .227 .237 L .32700003 .293 C .426 .34800003 .47700004 .42200003 .47700004 .51100006 C .47700004 .57100006 .453 .62700006 .411 .66600009 C .36900003 .70400008 .317 .72200009 .25 .72200009 C .16 .72200009 .093 .69000008 .054000006 .628 C .029 .59000006 .018 .545 .015999999 .47200004 L .10400001 .47200004 C .107 .521 .113 .55 .125 .57400009 C .148 .61800006 .194 .64500007 .24700001 .64500007 C .32700003 .64500007 .38700003 .587 .38700003 .50900009 C .38700003 .45100004 .354 .40100003 .291 .36500005 L .199 .31100003 C .051 .22600001 .008000001 .158 0 0 L .47200004 0 L .47200004 .086 Z "/>
</symbol>
<symbol id="font_0_e">
<path d="M .238 .072 L 0 .072 L 0 0 L .238 0 L .238 .072 Z "/>
</symbol>
<symbol id="font_0_31">
<path d="M .09300001 .30900003 L .32200004 .30900003 C .379 .30900003 .42400003 .326 .463 .36100004 C .507 .40100003 .526 .448 .526 .51500007 C .526 .652 .445 .72900006 .301 .72900006 L 0 .72900006 L 0 0 L .09300001 0 L .09300001 .30900003 M .09300001 .39100004 L .09300001 .647 L .287 .647 C .376 .647 .42900003 .59900006 .42900003 .51900008 C .42900003 .439 .376 .39100004 .287 .39100004 L .09300001 .39100004 Z "/>
</symbol>
<symbol id="font_0_55">
<path d="M .24000001 .54700008 L .15400002 .54700008 L .15400002 .69100007 L .071 .69100007 L .071 .54700008 L 0 .54700008 L 0 .47900004 L .071 .47900004 L .071 .083000008 C .071 .029000003 .10700001 0 .172 0 C .194 0 .21200001 .0020000004 .24000001 .007000001 L .24000001 .07700001 C .22800002 .074 .21700001 .073 .20000002 .073 C .164 .073 .15400002 .083000008 .15400002 .120000008 L .15400002 .47900004 L .24000001 .47900004 L .24000001 .54700008 Z "/>
</symbol>
<symbol id="font_0_5b">
<path d="M .41200004 .52400007 L .021 .52400007 L .021 .45100004 L .31300003 .45100004 L 0 .075 L 0 0 L .42600004 0 L .42600004 .07300001 L .100999999 .07300001 L .41200004 .45000003 L .41200004 .52400007 Z "/>
</symbol>
<symbol id="font_0_1b">
<path d="M .10400001 .104 L 0 .104 L 0 0 L .10400001 0 L .10400001 .104 M .10400001 .52400007 L 0 .52400007 L 0 .42000003 L .10400001 .42000003 L .10400001 .52400007 Z "/>
</symbol>
<symbol id="font_0_21">
<path d="M .63100007 .64300009 L .609 .577 C .58400008 .63500007 .54200008 .66400006 .48700003 .66400006 C .35300002 .66400006 .22999999 .532 .22999999 .38700003 C .22999999 .283 .3 .20400001 .393 .20400001 C .446 .20400001 .489 .22600001 .535 .27600003 C .544 .22500001 .58100005 .199 .64500007 .199 C .72 .199 .78000006 .22800002 .8310001 .28800003 C .88600006 .352 .91700008 .43200005 .91700008 .51100006 C .91700008 .71500006 .72400006 .8830001 .49100004 .8830001 C .372 .8830001 .24599999 .83400008 .15799999 .75400009 C .060000004 .665 0 .531 0 .40000005 C 0 .178 .20200002 0 .455 0 C .52900007 0 .60800006 .015000001 .68100008 .042000005 L .65300008 .109000008 C .57000008 .086 .51500007 .077 .45900003 .077 C .248 .077 .085 .224 .085 .41500003 C .085 .625 .26700003 .80600008 .47800002 .80600008 C .6700001 .80600008 .83000007 .66600009 .83000007 .49800004 C .83000007 .38200004 .74700006 .269 .66200008 .269 C .63500007 .269 .61200007 .289 .61200007 .31300003 C .61200007 .32200004 .61600008 .34000004 .6240001 .36300005 L .71400007 .64300009 L .63100007 .64300009 M .48100005 .6 C .53700008 .6 .57800009 .559 .57500007 .504 C .5730001 .454 .54600009 .37 .521 .333 C .493 .292 .456 .268 .419 .268 C .36400003 .268 .32 .32 .32 .38600005 C .32 .49800004 .397 .6 .48100005 .6 Z "/>
</symbol>
<symbol id="font_0_56">
<path d="M .41700004 .023000002 L .41700004 .54700008 L .33400003 .54700008 L .33400003 .25 C .33400003 .143 .27800004 .073 .19100002 .073 C .125 .073 .083 .113000009 .083 .17600002 L .083 .54700008 L 0 .54700008 L 0 .143 C 0 .056 .065000008 0 .167 0 C .24400002 0 .293 .027000003 .342 .09600001 L .342 .023000002 L .41700004 .023000002 Z "/>
</symbol>
<symbol id="font_0_51">
<path d="M 0 0 L .08400001 0 L .08400001 .273 C .128 .21900001 .177 .19500001 .24500002 .19500001 C .38100005 .19500001 .469 .30400003 .469 .47100003 C .469 .647 .38300003 .757 .244 .757 C .17300001 .757 .116 .725 .07700001 .66300007 L .07700001 .74200007 L 0 .74200007 L 0 0 M .23 .679 C .32200004 .679 .38200004 .59800007 .38200004 .47300006 C .38200004 .35400004 .32100005 .273 .23 .273 C .141 .273 .08400001 .35300002 .08400001 .476 C .08400001 .59900006 .141 .679 .23 .679 Z "/>
</symbol>
<symbol id="font_0_4d">
<path d="M .08400001 .72900006 L 0 .72900006 L 0 0 L .08400001 0 L .08400001 .72900006 Z "/>
</symbol>
<symbol id="font_0_35">
<path d="M .333 .647 L .572 .647 L .572 .72900006 L 0 .72900006 L 0 .647 L .24000001 .647 L .24000001 0 L .333 0 L .333 .647 Z "/>
</symbol>
<use xlink:href="#font_0_2e" transform="matrix(27.777777,0,0,-27.777777,626.6111,118.58325)"/>
<use xlink:href="#font_0_f" transform="matrix(27.777777,0,0,-27.777777,650.0833,118.58325)"/>
<use xlink:href="#font_0_1" transform="matrix(27.777777,0,0,-27.777777,655.38888,118.58325)"/>
<use xlink:href="#font_0_2a" transform="matrix(27.777777,0,0,-27.777777,665.88888,118.58325)"/>
<use xlink:href="#font_0_4f" transform="matrix(27.777777,0,0,-27.777777,672.7778,118.58325)"/>
<use xlink:href="#font_0_48" transform="matrix(27.777777,0,0,-27.777777,687.25,124.63881)"/>
<use xlink:href="#font_0_f" transform="matrix(27.777777,0,0,-27.777777,704.13888,118.58325)"/>
<use xlink:href="#font_0_1" transform="matrix(27.777777,0,0,-27.777777,709.4444,118.58325)"/>
<use xlink:href="#font_0_23" transform="matrix(27.777777,0,0,-27.777777,719.3611,118.58325)"/>
<use xlink:href="#font_0_4a" transform="matrix(27.777777,0,0,-27.777777,737.5278,118.58325)"/>
<use xlink:href="#font_0_50" transform="matrix(27.777777,0,0,-27.777777,742.8611,119.22214)"/>
<use xlink:href="#font_0_4e" transform="matrix(27.777777,0,0,-27.777777,759.25,118.58325)"/>
<use xlink:href="#font_0_46" transform="matrix(27.777777,0,0,-27.777777,781.5555,119.22214)"/>
<use xlink:href="#font_0_45" transform="matrix(27.777777,0,0,-27.777777,796.6111,119.22214)"/>
<use xlink:href="#font_0_4a" transform="matrix(27.777777,0,0,-27.777777,813.16659,118.58325)"/>
<use xlink:href="#font_0_44" transform="matrix(27.777777,0,0,-27.777777,818.361,119.22214)"/>
<use xlink:href="#font_0_42" transform="matrix(27.777777,0,0,-27.777777,832.5555,119.22214)"/>
<use xlink:href="#font_0_d" transform="matrix(27.777777,0,0,-27.777777,849.24996,122.72214)"/>
<use xlink:href="#font_0_1" transform="matrix(27.777777,0,0,-27.777777,854.5555,118.58325)"/>
<use xlink:href="#font_0_23" transform="matrix(27.777777,0,0,-27.777777,864.47219,118.58325)"/>
<use xlink:href="#font_0_4a" transform="matrix(27.777777,0,0,-27.777777,882.63888,118.58325)"/>
<use xlink:href="#font_0_50" transform="matrix(27.777777,0,0,-27.777777,887.97219,119.22214)"/>
<use xlink:href="#font_0_4f" transform="matrix(27.777777,0,0,-27.777777,904.3611,118.58325)"/>
<use xlink:href="#font_0_4a" transform="matrix(27.777777,0,0,-27.777777,919.6944,118.58325)"/>
<use xlink:href="#font_0_44" transform="matrix(27.777777,0,0,-27.777777,924.8888,119.22214)"/>
<use xlink:href="#font_0_54" transform="matrix(27.777777,0,0,-27.777777,938.8611,119.22214)"/>
<use xlink:href="#font_0_1" transform="matrix(27.777777,0,0,-27.777777,951.8055,118.58325)"/>
<use xlink:href="#font_0_26" transform="matrix(27.777777,0,0,-27.777777,962.0277,118.58325)"/>
<use xlink:href="#font_0_4f" transform="matrix(27.777777,0,0,-27.777777,980,118.58325)"/>
<use xlink:href="#font_0_48" transform="matrix(27.777777,0,0,-27.777777,994.4722,124.63881)"/>
<use xlink:href="#font_0_4a" transform="matrix(27.777777,0,0,-27.777777,1010.7777,118.58325)"/>
<use xlink:href="#font_0_4f" transform="matrix(27.777777,0,0,-27.777777,1017.05557,118.58325)"/>
<use xlink:href="#font_0_46" transform="matrix(27.777777,0,0,-27.777777,1031.6666,119.22214)"/>
<use xlink:href="#font_0_46" transform="matrix(27.777777,0,0,-27.777777,1047.1111,119.22214)"/>
<use xlink:href="#font_0_53" transform="matrix(27.777777,0,0,-27.777777,1063.361,118.58325)"/>
<use xlink:href="#font_0_4a" transform="matrix(27.777777,0,0,-27.777777,1072.5277,118.58325)"/>
<use xlink:href="#font_0_4f" transform="matrix(27.777777,0,0,-27.777777,1078.8054,118.58325)"/>
<use xlink:href="#font_0_48" transform="matrix(27.777777,0,0,-27.777777,1093.2776,124.63881)"/>
<use xlink:href="#font_0_2d" transform="matrix(27.777777,0,0,-27.777777,264.3889,181.58325)"/>
<use xlink:href="#font_0_22" transform="matrix(27.777777,0,0,-27.777777,278.08335,181.58325)"/>
<use xlink:href="#font_0_36" transform="matrix(27.777777,0,0,-27.777777,298.5,182.22214)"/>
<use xlink:href="#font_0_33" transform="matrix(27.777777,0,0,-27.777777,318.77778,181.58325)"/>
<use xlink:href="#font_0_26" transform="matrix(27.777777,0,0,-27.777777,338.75,181.58325)"/>
<use xlink:href="#font_0_22" transform="matrix(27.777777,0,0,-27.777777,355.25,181.58325)"/>
<use xlink:href="#font_0_2f" transform="matrix(27.777777,0,0,-27.777777,375.41667,181.58325)"/>
<use xlink:href="#font_0_25" transform="matrix(27.777777,0,0,-27.777777,395.8333,181.58325)"/>
<use xlink:href="#font_0_30" transform="matrix(27.777777,0,0,-27.777777,414.4722,182.22214)"/>
<use xlink:href="#font_0_34" transform="matrix(27.777777,0,0,-27.777777,436.3611,182.22214)"/>
<use xlink:href="#font_0_2a" transform="matrix(27.777777,0,0,-27.777777,456.3333,181.58325)"/>
<use xlink:href="#font_0_1" transform="matrix(27.777777,0,0,-27.777777,461.27775,181.58325)"/>
<use xlink:href="#font_0_13" transform="matrix(27.777777,0,0,-27.777777,469.94444,181.55548)"/>
<use xlink:href="#font_0_1" transform="matrix(27.777777,0,0,-27.777777,484.4444,181.58325)"/>
<use xlink:href="#font_0_e" transform="matrix(27.777777,0,0,-27.777777,493.4444,174.91658)"/>
<use xlink:href="#font_0_1" transform="matrix(27.777777,0,0,-27.777777,501.41664,181.58325)"/>
<use xlink:href="#font_0_31" transform="matrix(27.777777,0,0,-27.777777,511.66664,181.58325)"/>
<use xlink:href="#font_0_53" transform="matrix(27.777777,0,0,-27.777777,529.5833,181.58325)"/>
<use xlink:href="#font_0_50" transform="matrix(27.777777,0,0,-27.777777,537.9166,182.22214)"/>
<use xlink:href="#font_0_48" transform="matrix(27.777777,0,0,-27.777777,553.3333,187.63881)"/>
<use xlink:href="#font_0_46" transform="matrix(27.777777,0,0,-27.777777,568.91659,182.22214)"/>
<use xlink:href="#font_0_55" transform="matrix(27.777777,0,0,-27.777777,583.63888,182.22214)"/>
<use xlink:href="#font_0_55" transform="matrix(27.777777,0,0,-27.777777,591.3611,182.22214)"/>
<use xlink:href="#font_0_42" transform="matrix(27.777777,0,0,-27.777777,599.8611,182.22214)"/>
<use xlink:href="#font_0_5b" transform="matrix(27.777777,0,0,-27.777777,614.9999,181.58325)"/>
<use xlink:href="#font_0_4a" transform="matrix(27.777777,0,0,-27.777777,629.861,181.58325)"/>
<use xlink:href="#font_0_50" transform="matrix(27.777777,0,0,-27.777777,635.1944,182.22214)"/>
<use xlink:href="#font_0_4f" transform="matrix(27.777777,0,0,-27.777777,651.58328,181.58325)"/>
<use xlink:href="#font_0_46" transform="matrix(27.777777,0,0,-27.777777,666.19436,182.22214)"/>
<use xlink:href="#font_0_1b" transform="matrix(27.777777,0,0,-27.777777,683.58328,181.58325)"/>
<use xlink:href="#font_0_1" transform="matrix(27.777777,0,0,-27.777777,688.2499,181.58325)"/>
<use xlink:href="#font_0_4e" transform="matrix(27.777777,0,0,-27.777777,697.91659,181.58325)"/>
<use xlink:href="#font_0_42" transform="matrix(27.777777,0,0,-27.777777,720.2777,182.22214)"/>
<use xlink:href="#font_0_53" transform="matrix(27.777777,0,0,-27.777777,736.4721,181.58325)"/>
<use xlink:href="#font_0_4a" transform="matrix(27.777777,0,0,-27.777777,745.63876,181.58325)"/>
<use xlink:href="#font_0_50" transform="matrix(27.777777,0,0,-27.777777,750.9721,182.22214)"/>
<use xlink:href="#font_0_f" transform="matrix(27.777777,0,0,-27.777777,767.8332,181.58325)"/>
<use xlink:href="#font_0_44" transform="matrix(27.777777,0,0,-27.777777,773.9998,182.22214)"/>
<use xlink:href="#font_0_4a" transform="matrix(27.777777,0,0,-27.777777,788.86099,181.58325)"/>
<use xlink:href="#font_0_4e" transform="matrix(27.777777,0,0,-27.777777,795.13876,181.58325)"/>
<use xlink:href="#font_0_4a" transform="matrix(27.777777,0,0,-27.777777,818.16647,181.58325)"/>
<use xlink:href="#font_0_4f" transform="matrix(27.777777,0,0,-27.777777,824.4443,181.58325)"/>
<use xlink:href="#font_0_50" transform="matrix(27.777777,0,0,-27.777777,838.9443,182.22214)"/>
<use xlink:href="#font_0_21" transform="matrix(27.777777,0,0,-27.777777,854.3331,185.5277)"/>
<use xlink:href="#font_0_56" transform="matrix(27.777777,0,0,-27.777777,883.3887,182.22214)"/>
<use xlink:href="#font_0_4f" transform="matrix(27.777777,0,0,-27.777777,898.972,181.58325)"/>
<use xlink:href="#font_0_4a" transform="matrix(27.777777,0,0,-27.777777,914.3053,181.58325)"/>
<use xlink:href="#font_0_51" transform="matrix(27.777777,0,0,-27.777777,920.1387,187.63881)"/>
<use xlink:href="#font_0_4a" transform="matrix(27.777777,0,0,-27.777777,935.9164,181.58325)"/>
<use xlink:href="#font_0_f" transform="matrix(27.777777,0,0,-27.777777,942.66647,181.58325)"/>
<use xlink:href="#font_0_4a" transform="matrix(27.777777,0,0,-27.777777,949.8053,181.58325)"/>
<use xlink:href="#font_0_55" transform="matrix(27.777777,0,0,-27.777777,954.5276,182.22214)"/>
<use xlink:href="#font_0_d" transform="matrix(27.777777,0,0,-27.777777,964.2776,185.72214)"/>
<use xlink:href="#font_0_1" transform="matrix(27.777777,0,0,-27.777777,969.58309,181.58325)"/>
<use xlink:href="#font_0_22" transform="matrix(27.777777,0,0,-27.777777,977.7775,181.58325)"/>
<use xlink:href="#font_0_4e" transform="matrix(27.777777,0,0,-27.777777,997.7776,181.58325)"/>
<use xlink:href="#font_0_4e" transform="matrix(27.777777,0,0,-27.777777,1020.91647,181.58325)"/>
<use xlink:href="#font_0_4a" transform="matrix(27.777777,0,0,-27.777777,1043.9442,181.58325)"/>
<use xlink:href="#font_0_4f" transform="matrix(27.777777,0,0,-27.777777,1050.2219,181.58325)"/>
<use xlink:href="#font_0_4a" transform="matrix(27.777777,0,0,-27.777777,1065.5553,181.58325)"/>
<use xlink:href="#font_0_54" transform="matrix(27.777777,0,0,-27.777777,1070.833,182.22214)"/>
<use xlink:href="#font_0_55" transform="matrix(27.777777,0,0,-27.777777,1084.1664,182.22214)"/>
<use xlink:href="#font_0_53" transform="matrix(27.777777,0,0,-27.777777,1093.4164,181.58325)"/>
<use xlink:href="#font_0_42" transform="matrix(27.777777,0,0,-27.777777,1101.9163,182.22214)"/>
<use xlink:href="#font_0_5b" transform="matrix(27.777777,0,0,-27.777777,1117.0552,181.58325)"/>
<use xlink:href="#font_0_4a" transform="matrix(27.777777,0,0,-27.777777,1131.9164,181.58325)"/>
<use xlink:href="#font_0_50" transform="matrix(27.777777,0,0,-27.777777,1137.2496,182.22214)"/>
<use xlink:href="#font_0_4f" transform="matrix(27.777777,0,0,-27.777777,1153.6386,181.58325)"/>
<use xlink:href="#font_0_46" transform="matrix(27.777777,0,0,-27.777777,1168.2496,182.22214)"/>
<use xlink:href="#font_0_1b" transform="matrix(27.777777,0,0,-27.777777,1185.6386,181.58325)"/>
<use xlink:href="#font_0_1" transform="matrix(27.777777,0,0,-27.777777,1190.3052,181.58325)"/>
<use xlink:href="#font_0_53" transform="matrix(27.777777,0,0,-27.777777,1199.9441,181.58325)"/>
<use xlink:href="#font_0_50" transform="matrix(27.777777,0,0,-27.777777,1208.2774,182.22214)"/>
<use xlink:href="#font_0_54" transform="matrix(27.777777,0,0,-27.777777,1223.6663,182.22214)"/>
<use xlink:href="#font_0_46" transform="matrix(27.777777,0,0,-27.777777,1237.7218,182.22214)"/>
<use xlink:href="#font_0_f" transform="matrix(27.777777,0,0,-27.777777,1254.4718,181.58325)"/>
<use xlink:href="#font_0_53" transform="matrix(27.777777,0,0,-27.777777,1261.694,181.58325)"/>
<use xlink:href="#font_0_50" transform="matrix(27.777777,0,0,-27.777777,1270.0274,182.22214)"/>
<use xlink:href="#font_0_54" transform="matrix(27.777777,0,0,-27.777777,1285.4163,182.22214)"/>
<use xlink:href="#font_0_54" transform="matrix(27.777777,0,0,-27.777777,1299.305,182.22214)"/>
<use xlink:href="#font_0_4a" transform="matrix(27.777777,0,0,-27.777777,1314.0829,181.58325)"/>
<use xlink:href="#font_0_46" transform="matrix(27.777777,0,0,-27.777777,1319.5274,182.22214)"/>
<use xlink:href="#font_0_4d" transform="matrix(27.777777,0,0,-27.777777,1335.7495,181.58325)"/>
<use xlink:href="#font_0_4d" transform="matrix(27.777777,0,0,-27.777777,1341.9163,181.58325)"/>
<use xlink:href="#font_0_50" transform="matrix(27.777777,0,0,-27.777777,1347.194,182.22214)"/>
<use xlink:href="#font_0_21" transform="matrix(27.777777,0,0,-27.777777,1362.5829,185.5277)"/>
<use xlink:href="#font_0_56" transform="matrix(27.777777,0,0,-27.777777,1391.6384,182.22214)"/>
<use xlink:href="#font_0_4f" transform="matrix(27.777777,0,0,-27.777777,1407.2218,181.58325)"/>
<use xlink:href="#font_0_4a" transform="matrix(27.777777,0,0,-27.777777,1422.555,181.58325)"/>
<use xlink:href="#font_0_51" transform="matrix(27.777777,0,0,-27.777777,1428.3883,187.63881)"/>
<use xlink:href="#font_0_4a" transform="matrix(27.777777,0,0,-27.777777,1444.1661,181.58325)"/>
<use xlink:href="#font_0_f" transform="matrix(27.777777,0,0,-27.777777,1450.9159,181.58325)"/>
<use xlink:href="#font_0_4a" transform="matrix(27.777777,0,0,-27.777777,1458.055,181.58325)"/>
<use xlink:href="#font_0_55" transform="matrix(27.777777,0,0,-27.777777,1462.7771,182.22214)"/>
<use xlink:href="#font_0_2d" transform="matrix(27.777777,0,0,-27.777777,746.4166,244.55542)"/>
<use xlink:href="#font_0_2a" transform="matrix(27.777777,0,0,-27.777777,762.4166,244.55542)"/>
<use xlink:href="#font_0_34" transform="matrix(27.777777,0,0,-27.777777,768.6944,245.1943)"/>
<use xlink:href="#font_0_35" transform="matrix(27.777777,0,0,-27.777777,786.4722,244.55542)"/>
<use xlink:href="#font_0_22" transform="matrix(27.777777,0,0,-27.777777,803.3333,244.55542)"/>
<use xlink:href="#font_0_1" transform="matrix(27.777777,0,0,-27.777777,821.3889,244.55542)"/>
<use xlink:href="#font_0_2d" transform="matrix(27.777777,0,0,-27.777777,831.3333,244.55542)"/>
<use xlink:href="#font_0_22" transform="matrix(27.777777,0,0,-27.777777,845.0278,244.55542)"/>
<use xlink:href="#font_0_36" transform="matrix(27.777777,0,0,-27.777777,865.44448,245.1943)"/>
<use xlink:href="#font_0_33" transform="matrix(27.777777,0,0,-27.777777,885.7222,244.55542)"/>
<use xlink:href="#font_0_26" transform="matrix(27.777777,0,0,-27.777777,905.69448,244.55542)"/>
<use xlink:href="#font_0_22" transform="matrix(27.777777,0,0,-27.777777,922.1945,244.55542)"/>
<use xlink:href="#font_0_2f" transform="matrix(27.777777,0,0,-27.777777,942.3612,244.55542)"/>
<use xlink:href="#font_0_25" transform="matrix(27.777777,0,0,-27.777777,962.7779,244.55542)"/>
<use xlink:href="#font_0_2a" transform="matrix(27.777777,0,0,-27.777777,983.139,244.55542)"/>
<path transform="matrix(2.7777777,0,0,-2.7777777,0,2338.5833)" stroke-width=".57" stroke-linecap="square" stroke-miterlimit="10" stroke-linejoin="miter" fill="none" stroke="#000000" d="M 28.35 745.51 L 161.58 745.51 L 161.58 728.5 L 28.35 728.5 Z "/>
<symbol id="font_0_24">
<path d="M .6140001 .526 C .58500006 .68600007 .493 .76400008 .333 .76400008 C .23500002 .76400008 .15600002 .73300006 .102000009 .67300006 C .036000007 .601 0 .49700005 0 .379 C 0 .259 .037 .156 .10500001 .08500001 C .162 .027000003 .234 0 .329 0 C .507 0 .60700008 .09600001 .62900009 .289 L .53300008 .289 C .52500006 .23900001 .51500007 .20500002 .50000008 .17600002 C .47 .116000007 .40800003 .082 .33 .082 C .185 .082 .093 .19800002 .093 .38000003 C .093 .56700006 .18 .68200007 .322 .68200007 C .381 .68200007 .43600003 .665 .466 .63600006 C .493 .611 .5080001 .58100005 .51900008 .526 L .6140001 .526 Z "/>
</symbol>
<symbol id="font_0_28">
<path d="M .665 .40800003 L .36100004 .40800003 L .36100004 .326 L .583 .326 L .583 .30600003 C .583 .17600002 .48700003 .082 .35400004 .082 C .28 .082 .213 .109000008 .17000002 .156 C .12200001 .208 .09300001 .29500003 .09300001 .38500003 C .09300001 .564 .19500001 .68200007 .349 .68200007 C .46 .68200007 .54 .62500008 .56 .531 L .65500006 .531 C .629 .679 .517 .76400008 .35000003 .76400008 C .261 .76400008 .18900001 .74100008 .13200002 .694 C .047000003 .624 0 .51100006 0 .38000003 C 0 .156 .13700001 0 .33400003 0 C .43300004 0 .511 .037 .583 .116000007 L .606 .019000002 L .665 .019000002 L .665 .40800003 Z "/>
</symbol>
<use xlink:href="#font_0_24" transform="matrix(27.777777,0,0,-27.777777,191.80554,300.33335)"/>
<use xlink:href="#font_0_30" transform="matrix(27.777777,0,0,-27.777777,211.58333,300.33335)"/>
<use xlink:href="#font_0_28" transform="matrix(27.777777,0,0,-27.777777,233.36112,300.33335)"/>
<use xlink:href="#font_0_2f" transform="matrix(27.777777,0,0,-27.777777,255.8611,299.69447)"/>
<use xlink:href="#font_0_30" transform="matrix(27.777777,0,0,-27.777777,274.86109,300.33335)"/>
<use xlink:href="#font_0_2e" transform="matrix(27.777777,0,0,-27.777777,297.5,299.69447)"/>
<use xlink:href="#font_0_26" transform="matrix(27.777777,0,0,-27.777777,321.05555,299.69447)"/>
<path transform="matrix(2.7777777,0,0,-2.7777777,0,2338.5833)" stroke-width=".57" stroke-linecap="square" stroke-miterlimit="10" stroke-linejoin="miter" fill="none" stroke="#000000" d="M 161.57 745.51 L 294.8 745.51 L 294.8 728.5 L 161.57 728.5 Z "/>
<use xlink:href="#font_0_2f" transform="matrix(27.777777,0,0,-27.777777,594.30557,299.69447)"/>
<use xlink:href="#font_0_30" transform="matrix(27.777777,0,0,-27.777777,613.30557,300.33335)"/>
<use xlink:href="#font_0_2e" transform="matrix(27.777777,0,0,-27.777777,635.9444,299.69447)"/>
<use xlink:href="#font_0_26" transform="matrix(27.777777,0,0,-27.777777,659.5,299.69447)"/>
<path transform="matrix(2.7777777,0,0,-2.7777777,0,2338.5833)" stroke-width=".57" stroke-linecap="square" stroke-miterlimit="10" stroke-linejoin="miter" fill="none" stroke="#000000" d="M 294.8 745.51 L 428.02998 745.51 L 428.02998 728.5 L 294.8 728.5 Z "/>
<use xlink:href="#font_0_24" transform="matrix(27.777777,0,0,-27.777777,977.5,300.33335)"/>
<use xlink:href="#font_0_25" transform="matrix(27.777777,0,0,-27.777777,998.69448,299.69447)"/>
<use xlink:href="#font_0_2d" transform="matrix(27.777777,0,0,-27.777777,1018.5,299.69447)"/>
<path transform="matrix(2.7777777,0,0,-2.7777777,0,2338.5833)" stroke-width=".57" stroke-linecap="square" stroke-miterlimit="10" stroke-linejoin="miter" fill="none" stroke="#000000" d="M 428.03 745.51 L 561.26 745.51 L 561.26 728.5 L 428.03 728.5 Z "/>
<symbol id="font_0_37">
<path d="M .36200003 0 L .615 .72900006 L .51600006 .72900006 L .314 .112 L .10000001 .72900006 L 0 .72900006 L .26200003 0 L .36200003 0 Z "/>
</symbol>
<use xlink:href="#font_0_37" transform="matrix(27.777777,0,0,-27.777777,1276.0556,299.69447)"/>
<use xlink:href="#font_0_30" transform="matrix(27.777777,0,0,-27.777777,1294.8056,300.33335)"/>
<use xlink:href="#font_0_35" transform="matrix(27.777777,0,0,-27.777777,1315.9445,299.69447)"/>
<use xlink:href="#font_0_30" transform="matrix(27.777777,0,0,-27.777777,1333.3888,300.33335)"/>
<use xlink:href="#font_0_1" transform="matrix(27.777777,0,0,-27.777777,1353.9443,299.69447)"/>
<use xlink:href="#font_0_2d" transform="matrix(27.777777,0,0,-27.777777,1363.8887,299.69447)"/>
<use xlink:href="#font_0_22" transform="matrix(27.777777,0,0,-27.777777,1377.5831,299.69447)"/>
<use xlink:href="#font_0_36" transform="matrix(27.777777,0,0,-27.777777,1397.9999,300.33335)"/>
<use xlink:href="#font_0_33" transform="matrix(27.777777,0,0,-27.777777,1418.2777,299.69447)"/>
<use xlink:href="#font_0_26" transform="matrix(27.777777,0,0,-27.777777,1438.2499,299.69447)"/>
<use xlink:href="#font_0_22" transform="matrix(27.777777,0,0,-27.777777,1454.7499,299.69447)"/>
<path transform="matrix(2.7777777,0,0,-2.7777777,0,2338.5833)" stroke-width=".57" stroke-linecap="square" stroke-miterlimit="10" stroke-linejoin="miter" fill="none" stroke="#000000" d="M 28.35 728.5 L 161.58 728.5 L 161.58 714.33 L 28.35 714.33 Z "/>
<symbol id="font_1_33">
<path d="M 0 .71875 L .32177735 .71875 C .386556 .71875 .43815104 .6998698 .4765625 .6621094 C .5152995 .6246745 .53466799 .5753581 .53466799 .51416018 C .53466799 .4506836 .51497396 .3995768 .47558595 .36083985 C .43652345 .32242839 .38557945 .30322267 .3227539 .30322267 L .09716797 .30322267 L .09716797 0 L 0 0 L 0 .71875 M .09716797 .63378909 L .09716797 .38671876 L .28955079 .38671876 C .38623048 .38671876 .4345703 .42952476 .4345703 .5151367 C .4345703 .5942383 .38753257 .63378909 .29345704 .63378909 L .09716797 .63378909 Z "/>
</symbol>
<symbol id="font_1_2c">
<path d="M .09082031 .71875 L .18798828 .71875 L .18798828 0 L .09082031 0 L .09082031 .71875 M .13916016 .7919922 L .13916016 .7919922 M .12060547 0 L .12060547 0 M 0 .7373047 L 0 .7373047 Z "/>
</symbol>
<symbol id="font_1_31">
<path d="M .075683597 .71875 L .19091797 .71875 L .5522461 .13476563 L .5522461 .71875 L .6464844 .71875 L .6464844 0 L .5371094 0 L .16992188 .5839844 L .16992188 0 L .075683597 0 L .075683597 .71875 M .36572267 .7919922 L .36572267 .7919922 M .36767579 0 L .36767579 0 M 0 .7373047 L 0 .7373047 Z "/>
</symbol>
<symbol id="font_1_26">
<path d="M .5449219 .28125 L .63916018 .28125 C .6225586 .1875 .58723959 .1171875 .5332031 .0703125 C .47916667 .0234375 .40966798 0 .32470704 0 C .2273763 0 .14892578 .033854169 .08935547 .1015625 C .029785157 .16959636 0 .26171876 0 .3779297 C 0 .49283854 .030273438 .58447268 .09082031 .65283206 C .1516927 .7215169 .23404949 .7558594 .33789063 .7558594 C .41634117 .7558594 .48111979 .7363281 .53222659 .6972656 C .5836589 .6585286 .6166992 .5999349 .63134768 .5214844 L .5371094 .5214844 C .51204428 .62109377 .44547526 .67089846 .33740235 .67089846 C .2667643 .67089846 .20947266 .6456706 .16552735 .59521487 C .121907558 .5447591 .100097659 .47151695 .100097659 .37548829 C .100097659 .28694663 .119628909 .2163086 .1586914 .16357422 C .1977539 .11116537 .25585938 .08496094 .3330078 .08496094 C .3889974 .08496094 .43473307 .1015625 .47021485 .13476563 C .50602218 .16829427 .5309245 .21712239 .5449219 .28125 M .33789063 .8105469 L .33789063 .8105469 M .3256836 .018554688 L .3256836 .018554688 Z "/>
</symbol>
<symbol id="font_1_32">
<path d="M 0 .3779297 C 0 .4860026 .030924479 .5760091 .09277344 .6479492 C .15494792 .71988937 .24104817 .7558594 .35107423 .7558594 C .46044923 .7558594 .54622396 .71940109 .60839846 .6464844 C .67057296 .57389327 .70166018 .48632813 .70166018 .38378907 C .70166018 .27083335 .67073568 .17854817 .6088867 .106933597 C .5470378 .03564453 .4609375 0 .35058595 0 C .24739583 0 .16308594 .033854169 .09765625 .1015625 C .032552083 .16959636 0 .26171876 0 .3779297 M .100097659 .3779297 C .100097659 .2939453 .12207031 .2241211 .16601563 .16845703 C .21028646 .11279297 .27197267 .08496094 .35107423 .08496094 C .42333985 .08496094 .4830729 .1110026 .53027346 .16308594 C .5777995 .2154948 .6015625 .28710938 .6015625 .3779297 C .6015625 .46484376 .57926437 .53531906 .53466799 .58935549 C .49007163 .64371749 .42871095 .67089846 .35058595 .67089846 C .27669273 .67089846 .21647136 .64469406 .16992188 .59228518 C .1233724 .5398763 .100097659 .46842448 .100097659 .3779297 M .34814454 .8105469 L .34814454 .8105469 Z "/>
</symbol>
<use xlink:href="#font_1_33" transform="matrix(22.222222,0,0,-22.222222,228.64279,341.33326)"/>
<use xlink:href="#font_1_2c" transform="matrix(22.222222,0,0,-22.222222,241.54444,341.33326)"/>
<use xlink:href="#font_1_31" transform="matrix(22.222222,0,0,-22.222222,247.72222,341.33326)"/>
<use xlink:href="#font_1_26" transform="matrix(22.222222,0,0,-22.222222,264.74324,341.74559)"/>
<use xlink:href="#font_1_32" transform="matrix(22.222222,0,0,-22.222222,280.69,341.74559)"/>
<path transform="matrix(2.7777777,0,0,-2.7777777,0,2338.5833)" stroke-width=".57" stroke-linecap="square" stroke-miterlimit="10" stroke-linejoin="miter" fill="none" stroke="#000000" d="M 161.57 728.5 L 294.8 728.5 L 294.8 714.33 L 161.57 714.33 Z "/>
<symbol id="font_1_24">
<path d="M .013671875 0 L .28710938 .71875 L .39794923 .71875 L .6557617 0 L .5498047 0 L .47998048 .20996094 L .18945313 .20996094 L .11376953 0 L .013671875 0 M .2211914 .29492188 L .2211914 .29492188 L .4453125 .29492188 L .3388672 .6147461 L .2211914 .29492188 M .33984376 .7919922 L .33984376 .7919922 M .5605469 0 L .5605469 0 M 0 .7373047 L 0 .7373047 Z "/>
</symbol>
<symbol id="font_1_2f">
<path d="M .075683597 .71875 L .17285156 .71875 L .17285156 .08496094 L .54003909 .08496094 L .54003909 0 L .075683597 0 L .075683597 .71875 M .17529297 .7919922 L .17529297 .7919922 M .30810548 0 L .30810548 0 M 0 .7373047 L 0 .7373047 Z "/>
</symbol>
<use xlink:href="#font_1_33" transform="matrix(22.222222,0,0,-22.222222,580.1983,341.33326)"/>
<use xlink:href="#font_1_24" transform="matrix(22.222222,0,0,-22.222222,593.1,341.33326)"/>
<use xlink:href="#font_1_2f" transform="matrix(22.222222,0,0,-22.222222,607.9222,341.33326)"/>
<use xlink:href="#font_1_2f" transform="matrix(22.222222,0,0,-22.222222,620.2777,341.33326)"/>
<use xlink:href="#font_1_2c" transform="matrix(22.222222,0,0,-22.222222,632.63327,341.33326)"/>
<use xlink:href="#font_1_31" transform="matrix(22.222222,0,0,-22.222222,638.81106,341.33326)"/>
<use xlink:href="#font_1_32" transform="matrix(22.222222,0,0,-22.222222,655.7344,341.74559)"/>
<path transform="matrix(2.7777777,0,0,-2.7777777,0,2338.5833)" stroke-width=".57" stroke-linecap="square" stroke-miterlimit="10" stroke-linejoin="miter" fill="none" stroke="#000000" d="M 294.8 728.5 L 428.02998 728.5 L 428.02998 714.33 L 294.8 714.33 Z "/>
<path transform="matrix(2.7777777,0,0,-2.7777777,0,2338.5833)" stroke-width=".57" stroke-linecap="square" stroke-miterlimit="10" stroke-linejoin="miter" fill="none" stroke="#000000" d="M 428.03 728.5 L 561.26 728.5 L 561.26 714.33 L 428.03 714.33 Z "/>
<symbol id="font_0_10">
<path d="M .23700002 .749 L 0 0 L .055000005 0 L .292 .749 L .23700002 .749 Z "/>
</symbol>
<symbol id="font_0_12">
<path d="M .157 .51500007 L .157 0 L .245 0 L .245 .72300007 L .187 .72300007 C .15600002 .61200007 .136 .597 0 .57900008 L 0 .51500007 L .157 .51500007 Z "/>
</symbol>
<symbol id="font_0_11">
<path d="M .23200001 .74600008 C .16600001 .74600008 .106000009 .716 .069000009 .66700008 C .022999999 .60300007 0 .507 0 .37300004 C 0 .12900001 .08 0 .23200001 0 C .382 0 .46400003 .12900001 .46400003 .367 C .46400003 .507 .442 .601 .395 .66700008 C .358 .717 .299 .74600008 .23200001 .74600008 M .23200001 .66800007 C .327 .66800007 .374 .57100006 .374 .37500004 C .374 .16900002 .328 .073 .23 .073 C .13700001 .073 .09 .17300001 .09 .372 C .09 .57100006 .13700001 .66800007 .23200001 .66800007 Z "/>
</symbol>
<use xlink:href="#font_0_1" transform="matrix(22.222222,0,0,-22.222222,1343.1388,341.33326)"/>
<use xlink:href="#font_0_1" transform="matrix(22.222222,0,0,-22.222222,1349.3167,341.33326)"/>
<use xlink:href="#font_0_1" transform="matrix(22.222222,0,0,-22.222222,1355.4944,341.33326)"/>
<use xlink:href="#font_0_10" transform="matrix(22.222222,0,0,-22.222222,1361.4944,341.7777)"/>
<use xlink:href="#font_0_12" transform="matrix(22.222222,0,0,-22.222222,1370.1167,341.33326)"/>
<use xlink:href="#font_0_12" transform="matrix(22.222222,0,0,-22.222222,1382.4722,341.33326)"/>
<use xlink:href="#font_0_11" transform="matrix(22.222222,0,0,-22.222222,1393.5166,341.84437)"/>
</g>
</svg>
